<mxfile host="app.diagrams.net" modified="2023-09-25T14:48:57.801Z" agent="Mozilla/5.0 (Windows NT 10.0; Win64; x64) AppleWebKit/537.36 (KHTML, like Gecko) Chrome/117.0.0.0 Safari/537.36" etag="2GBycGlV9GskZdZZ8uq1" version="21.8.2" type="github">
  <diagram name="Page-1" id="Z6Z7MIp1uJDV5iuDduHF">
    <mxGraphModel dx="1674" dy="758" grid="1" gridSize="10" guides="1" tooltips="1" connect="1" arrows="1" fold="1" page="1" pageScale="1" pageWidth="850" pageHeight="1100" math="0" shadow="0">
      <root>
        <mxCell id="0" />
        <mxCell id="1" parent="0" />
        <mxCell id="78Z0Ar44ANG4WeFFWspV-45" style="edgeStyle=none;shape=connector;rounded=0;orthogonalLoop=1;jettySize=auto;html=1;entryX=0;entryY=0;entryDx=0;entryDy=0;labelBackgroundColor=default;strokeColor=default;fontFamily=Helvetica;fontSize=11;fontColor=default;endArrow=none;endFill=0;" parent="1" source="78Z0Ar44ANG4WeFFWspV-1" target="78Z0Ar44ANG4WeFFWspV-44" edge="1">
          <mxGeometry relative="1" as="geometry" />
        </mxCell>
        <mxCell id="78Z0Ar44ANG4WeFFWspV-1" value="EMPLOYEE" style="rounded=1;whiteSpace=wrap;html=1;fontStyle=1" parent="1" vertex="1">
          <mxGeometry x="190" y="305" width="120" height="60" as="geometry" />
        </mxCell>
        <mxCell id="78Z0Ar44ANG4WeFFWspV-49" style="edgeStyle=none;shape=connector;rounded=0;orthogonalLoop=1;jettySize=auto;html=1;labelBackgroundColor=default;strokeColor=default;fontFamily=Helvetica;fontSize=11;fontColor=default;endArrow=none;endFill=0;" parent="1" source="78Z0Ar44ANG4WeFFWspV-2" target="78Z0Ar44ANG4WeFFWspV-47" edge="1">
          <mxGeometry relative="1" as="geometry" />
        </mxCell>
        <mxCell id="78Z0Ar44ANG4WeFFWspV-2" value="PART" style="rounded=1;whiteSpace=wrap;html=1;fontStyle=1" parent="1" vertex="1">
          <mxGeometry x="480" y="360" width="120" height="60" as="geometry" />
        </mxCell>
        <mxCell id="78Z0Ar44ANG4WeFFWspV-34" style="edgeStyle=none;shape=connector;rounded=0;orthogonalLoop=1;jettySize=auto;html=1;entryX=0;entryY=1;entryDx=0;entryDy=0;labelBackgroundColor=default;strokeColor=default;fontFamily=Helvetica;fontSize=11;fontColor=default;endArrow=none;endFill=0;" parent="1" source="78Z0Ar44ANG4WeFFWspV-3" target="78Z0Ar44ANG4WeFFWspV-31" edge="1">
          <mxGeometry relative="1" as="geometry" />
        </mxCell>
        <mxCell id="78Z0Ar44ANG4WeFFWspV-35" style="edgeStyle=none;shape=connector;rounded=0;orthogonalLoop=1;jettySize=auto;html=1;entryX=0;entryY=0;entryDx=0;entryDy=0;labelBackgroundColor=default;strokeColor=default;fontFamily=Helvetica;fontSize=11;fontColor=default;endArrow=none;endFill=0;" parent="1" source="78Z0Ar44ANG4WeFFWspV-3" target="78Z0Ar44ANG4WeFFWspV-32" edge="1">
          <mxGeometry relative="1" as="geometry" />
        </mxCell>
        <mxCell id="78Z0Ar44ANG4WeFFWspV-36" style="edgeStyle=none;shape=connector;rounded=0;orthogonalLoop=1;jettySize=auto;html=1;labelBackgroundColor=default;strokeColor=default;fontFamily=Helvetica;fontSize=11;fontColor=default;endArrow=none;endFill=0;" parent="1" source="78Z0Ar44ANG4WeFFWspV-3" target="78Z0Ar44ANG4WeFFWspV-33" edge="1">
          <mxGeometry relative="1" as="geometry" />
        </mxCell>
        <mxCell id="78Z0Ar44ANG4WeFFWspV-37" style="edgeStyle=none;shape=connector;rounded=0;orthogonalLoop=1;jettySize=auto;html=1;entryX=0.363;entryY=1;entryDx=0;entryDy=0;entryPerimeter=0;labelBackgroundColor=default;strokeColor=default;fontFamily=Helvetica;fontSize=11;fontColor=default;endArrow=none;endFill=0;" parent="1" source="78Z0Ar44ANG4WeFFWspV-3" target="78Z0Ar44ANG4WeFFWspV-30" edge="1">
          <mxGeometry relative="1" as="geometry" />
        </mxCell>
        <mxCell id="78Z0Ar44ANG4WeFFWspV-43" style="edgeStyle=none;shape=connector;rounded=0;orthogonalLoop=1;jettySize=auto;html=1;entryX=1;entryY=0.5;entryDx=0;entryDy=0;labelBackgroundColor=default;strokeColor=default;fontFamily=Helvetica;fontSize=11;fontColor=default;endArrow=none;endFill=0;" parent="1" source="78Z0Ar44ANG4WeFFWspV-3" target="78Z0Ar44ANG4WeFFWspV-41" edge="1">
          <mxGeometry relative="1" as="geometry" />
        </mxCell>
        <mxCell id="78Z0Ar44ANG4WeFFWspV-46" style="edgeStyle=none;shape=connector;rounded=0;orthogonalLoop=1;jettySize=auto;html=1;entryX=1;entryY=1;entryDx=0;entryDy=0;labelBackgroundColor=default;strokeColor=default;fontFamily=Helvetica;fontSize=11;fontColor=default;endArrow=none;endFill=0;" parent="1" source="78Z0Ar44ANG4WeFFWspV-3" target="78Z0Ar44ANG4WeFFWspV-44" edge="1">
          <mxGeometry relative="1" as="geometry" />
        </mxCell>
        <mxCell id="78Z0Ar44ANG4WeFFWspV-48" style="edgeStyle=none;shape=connector;rounded=0;orthogonalLoop=1;jettySize=auto;html=1;entryX=0.5;entryY=1;entryDx=0;entryDy=0;labelBackgroundColor=default;strokeColor=default;fontFamily=Helvetica;fontSize=11;fontColor=default;endArrow=none;endFill=0;" parent="1" source="78Z0Ar44ANG4WeFFWspV-3" target="78Z0Ar44ANG4WeFFWspV-47" edge="1">
          <mxGeometry relative="1" as="geometry" />
        </mxCell>
        <mxCell id="78Z0Ar44ANG4WeFFWspV-3" value="ORDER" style="rounded=1;whiteSpace=wrap;html=1;fontStyle=1" parent="1" vertex="1">
          <mxGeometry x="550" y="710" width="120" height="60" as="geometry" />
        </mxCell>
        <mxCell id="78Z0Ar44ANG4WeFFWspV-38" style="edgeStyle=none;shape=connector;rounded=0;orthogonalLoop=1;jettySize=auto;html=1;entryX=1;entryY=0;entryDx=0;entryDy=0;labelBackgroundColor=default;strokeColor=default;fontFamily=Helvetica;fontSize=11;fontColor=default;endArrow=none;endFill=0;" parent="1" source="78Z0Ar44ANG4WeFFWspV-4" target="78Z0Ar44ANG4WeFFWspV-28" edge="1">
          <mxGeometry relative="1" as="geometry" />
        </mxCell>
        <mxCell id="78Z0Ar44ANG4WeFFWspV-39" style="edgeStyle=none;shape=connector;rounded=0;orthogonalLoop=1;jettySize=auto;html=1;entryX=0.5;entryY=0;entryDx=0;entryDy=0;labelBackgroundColor=default;strokeColor=default;fontFamily=Helvetica;fontSize=11;fontColor=default;endArrow=none;endFill=0;" parent="1" source="78Z0Ar44ANG4WeFFWspV-4" target="78Z0Ar44ANG4WeFFWspV-29" edge="1">
          <mxGeometry relative="1" as="geometry" />
        </mxCell>
        <mxCell id="78Z0Ar44ANG4WeFFWspV-40" style="edgeStyle=none;shape=connector;rounded=0;orthogonalLoop=1;jettySize=auto;html=1;entryX=0.432;entryY=0.051;entryDx=0;entryDy=0;labelBackgroundColor=default;strokeColor=default;fontFamily=Helvetica;fontSize=11;fontColor=default;endArrow=none;endFill=0;entryPerimeter=0;" parent="1" source="78Z0Ar44ANG4WeFFWspV-4" target="78Z0Ar44ANG4WeFFWspV-26" edge="1">
          <mxGeometry relative="1" as="geometry" />
        </mxCell>
        <mxCell id="78Z0Ar44ANG4WeFFWspV-42" style="edgeStyle=none;shape=connector;rounded=0;orthogonalLoop=1;jettySize=auto;html=1;entryX=0;entryY=0.5;entryDx=0;entryDy=0;labelBackgroundColor=default;strokeColor=default;fontFamily=Helvetica;fontSize=11;fontColor=default;endArrow=none;endFill=0;" parent="1" source="78Z0Ar44ANG4WeFFWspV-4" target="78Z0Ar44ANG4WeFFWspV-41" edge="1">
          <mxGeometry relative="1" as="geometry" />
        </mxCell>
        <mxCell id="78Z0Ar44ANG4WeFFWspV-4" value="CUSTOMER" style="rounded=1;whiteSpace=wrap;html=1;fontStyle=1" parent="1" vertex="1">
          <mxGeometry x="210" y="720" width="120" height="60" as="geometry" />
        </mxCell>
        <mxCell id="78Z0Ar44ANG4WeFFWspV-17" style="edgeStyle=none;shape=connector;rounded=0;orthogonalLoop=1;jettySize=auto;html=1;entryX=0.5;entryY=0;entryDx=0;entryDy=0;labelBackgroundColor=default;strokeColor=default;fontFamily=Helvetica;fontSize=11;fontColor=default;endArrow=none;endFill=0;" parent="1" source="78Z0Ar44ANG4WeFFWspV-5" target="78Z0Ar44ANG4WeFFWspV-1" edge="1">
          <mxGeometry relative="1" as="geometry" />
        </mxCell>
        <mxCell id="78Z0Ar44ANG4WeFFWspV-5" value="Employee number" style="ellipse;whiteSpace=wrap;html=1;fontStyle=4" parent="1" vertex="1">
          <mxGeometry x="180" y="200" width="90" height="50" as="geometry" />
        </mxCell>
        <mxCell id="78Z0Ar44ANG4WeFFWspV-11" value="name" style="ellipse;whiteSpace=wrap;html=1;" parent="1" vertex="1">
          <mxGeometry y="315" width="100" height="50" as="geometry" />
        </mxCell>
        <mxCell id="78Z0Ar44ANG4WeFFWspV-16" style="edgeStyle=none;shape=connector;rounded=0;orthogonalLoop=1;jettySize=auto;html=1;entryX=0;entryY=0.75;entryDx=0;entryDy=0;labelBackgroundColor=default;strokeColor=default;fontFamily=Helvetica;fontSize=11;fontColor=default;endArrow=none;endFill=0;" parent="1" source="78Z0Ar44ANG4WeFFWspV-13" target="78Z0Ar44ANG4WeFFWspV-1" edge="1">
          <mxGeometry relative="1" as="geometry" />
        </mxCell>
        <mxCell id="78Z0Ar44ANG4WeFFWspV-13" value="" style="ellipse;whiteSpace=wrap;html=1;fillStyle=hatch;" parent="1" vertex="1">
          <mxGeometry x="7.5" y="322.5" width="85" height="35" as="geometry" />
        </mxCell>
        <mxCell id="78Z0Ar44ANG4WeFFWspV-15" style="rounded=0;orthogonalLoop=1;jettySize=auto;html=1;endArrow=none;endFill=0;" parent="1" source="78Z0Ar44ANG4WeFFWspV-14" target="78Z0Ar44ANG4WeFFWspV-1" edge="1">
          <mxGeometry relative="1" as="geometry" />
        </mxCell>
        <mxCell id="78Z0Ar44ANG4WeFFWspV-14" value="Zip code" style="ellipse;whiteSpace=wrap;html=1;" parent="1" vertex="1">
          <mxGeometry x="70" y="230" width="90" height="50" as="geometry" />
        </mxCell>
        <mxCell id="78Z0Ar44ANG4WeFFWspV-22" style="edgeStyle=none;shape=connector;rounded=0;orthogonalLoop=1;jettySize=auto;html=1;entryX=0.5;entryY=0;entryDx=0;entryDy=0;labelBackgroundColor=default;strokeColor=default;fontFamily=Helvetica;fontSize=11;fontColor=default;endArrow=none;endFill=0;" parent="1" source="78Z0Ar44ANG4WeFFWspV-18" target="78Z0Ar44ANG4WeFFWspV-2" edge="1">
          <mxGeometry relative="1" as="geometry" />
        </mxCell>
        <mxCell id="78Z0Ar44ANG4WeFFWspV-18" value="Part Number" style="ellipse;whiteSpace=wrap;html=1;fontStyle=4" parent="1" vertex="1">
          <mxGeometry x="470" y="220" width="90" height="50" as="geometry" />
        </mxCell>
        <mxCell id="78Z0Ar44ANG4WeFFWspV-23" style="edgeStyle=none;shape=connector;rounded=0;orthogonalLoop=1;jettySize=auto;html=1;entryX=0.683;entryY=-0.05;entryDx=0;entryDy=0;entryPerimeter=0;labelBackgroundColor=default;strokeColor=default;fontFamily=Helvetica;fontSize=11;fontColor=default;endArrow=none;endFill=0;" parent="1" source="78Z0Ar44ANG4WeFFWspV-19" target="78Z0Ar44ANG4WeFFWspV-2" edge="1">
          <mxGeometry relative="1" as="geometry" />
        </mxCell>
        <mxCell id="78Z0Ar44ANG4WeFFWspV-19" value="Part Name" style="ellipse;whiteSpace=wrap;html=1;" parent="1" vertex="1">
          <mxGeometry x="580" y="250" width="90" height="50" as="geometry" />
        </mxCell>
        <mxCell id="78Z0Ar44ANG4WeFFWspV-25" style="edgeStyle=none;shape=connector;rounded=0;orthogonalLoop=1;jettySize=auto;html=1;labelBackgroundColor=default;strokeColor=default;fontFamily=Helvetica;fontSize=11;fontColor=default;endArrow=none;endFill=0;" parent="1" source="78Z0Ar44ANG4WeFFWspV-21" target="78Z0Ar44ANG4WeFFWspV-2" edge="1">
          <mxGeometry relative="1" as="geometry" />
        </mxCell>
        <mxCell id="78Z0Ar44ANG4WeFFWspV-21" value="Price" style="ellipse;whiteSpace=wrap;html=1;" parent="1" vertex="1">
          <mxGeometry x="660" y="340" width="90" height="40" as="geometry" />
        </mxCell>
        <mxCell id="78Z0Ar44ANG4WeFFWspV-26" value="Customer number" style="ellipse;whiteSpace=wrap;html=1;fontFamily=Helvetica;fontSize=11;fontColor=default;fontStyle=4" parent="1" vertex="1">
          <mxGeometry x="290" y="830" width="110" height="50" as="geometry" />
        </mxCell>
        <mxCell id="78Z0Ar44ANG4WeFFWspV-27" value="name" style="ellipse;whiteSpace=wrap;html=1;fontFamily=Helvetica;fontSize=11;fontColor=default;" parent="1" vertex="1">
          <mxGeometry x="80" y="780" width="110" height="70" as="geometry" />
        </mxCell>
        <mxCell id="78Z0Ar44ANG4WeFFWspV-28" value="" style="ellipse;whiteSpace=wrap;html=1;fontFamily=Helvetica;fontSize=11;fontColor=default;fillStyle=hatch;" parent="1" vertex="1">
          <mxGeometry x="87.5" y="786.25" width="95" height="57.5" as="geometry" />
        </mxCell>
        <mxCell id="78Z0Ar44ANG4WeFFWspV-29" value="ZIP Code" style="ellipse;whiteSpace=wrap;html=1;fontFamily=Helvetica;fontSize=11;fontColor=default;" parent="1" vertex="1">
          <mxGeometry x="180" y="830" width="90" height="50" as="geometry" />
        </mxCell>
        <mxCell id="78Z0Ar44ANG4WeFFWspV-30" value="Order number" style="ellipse;whiteSpace=wrap;html=1;fontFamily=Helvetica;fontSize=11;fontColor=default;fontStyle=4" parent="1" vertex="1">
          <mxGeometry x="710" y="600" width="80" height="40" as="geometry" />
        </mxCell>
        <mxCell id="78Z0Ar44ANG4WeFFWspV-31" value="Date of receipt" style="ellipse;whiteSpace=wrap;html=1;fontFamily=Helvetica;fontSize=11;fontColor=default;" parent="1" vertex="1">
          <mxGeometry x="720" y="680" width="100" height="50" as="geometry" />
        </mxCell>
        <mxCell id="78Z0Ar44ANG4WeFFWspV-32" value="Expected ship date" style="ellipse;whiteSpace=wrap;html=1;fontFamily=Helvetica;fontSize=11;fontColor=default;" parent="1" vertex="1">
          <mxGeometry x="710" y="780" width="100" height="50" as="geometry" />
        </mxCell>
        <mxCell id="78Z0Ar44ANG4WeFFWspV-33" value="Actual ship date" style="ellipse;whiteSpace=wrap;html=1;fontFamily=Helvetica;fontSize=11;fontColor=default;" parent="1" vertex="1">
          <mxGeometry x="600" y="820" width="100" height="50" as="geometry" />
        </mxCell>
        <mxCell id="78Z0Ar44ANG4WeFFWspV-41" value="Place" style="rhombus;whiteSpace=wrap;html=1;fontFamily=Helvetica;fontSize=11;fontColor=default;" parent="1" vertex="1">
          <mxGeometry x="400" y="710" width="70" height="60" as="geometry" />
        </mxCell>
        <mxCell id="78Z0Ar44ANG4WeFFWspV-44" value="Take" style="rhombus;whiteSpace=wrap;html=1;fontFamily=Helvetica;fontSize=11;fontColor=default;" parent="1" vertex="1">
          <mxGeometry x="398" y="510" width="62" height="60" as="geometry" />
        </mxCell>
        <mxCell id="78Z0Ar44ANG4WeFFWspV-47" value="contain" style="rhombus;whiteSpace=wrap;html=1;fontFamily=Helvetica;fontSize=11;fontColor=default;" parent="1" vertex="1">
          <mxGeometry x="550" y="525" width="70" height="50" as="geometry" />
        </mxCell>
        <mxCell id="78Z0Ar44ANG4WeFFWspV-50" value="(0, n)" style="text;html=1;align=center;verticalAlign=middle;resizable=0;points=[];autosize=1;strokeColor=none;fillColor=none;fontSize=11;fontFamily=Helvetica;fontColor=default;" parent="1" vertex="1">
          <mxGeometry x="285" y="438" width="50" height="30" as="geometry" />
        </mxCell>
        <mxCell id="78Z0Ar44ANG4WeFFWspV-51" value="(1, 1)" style="text;html=1;align=center;verticalAlign=middle;resizable=0;points=[];autosize=1;strokeColor=none;fillColor=none;fontSize=11;fontFamily=Helvetica;fontColor=default;" parent="1" vertex="1">
          <mxGeometry x="455" y="628" width="50" height="30" as="geometry" />
        </mxCell>
        <mxCell id="78Z0Ar44ANG4WeFFWspV-52" value="(1, 1)" style="text;html=1;align=center;verticalAlign=middle;resizable=0;points=[];autosize=1;strokeColor=none;fillColor=none;fontSize=11;fontFamily=Helvetica;fontColor=default;" parent="1" vertex="1">
          <mxGeometry x="475" y="698" width="50" height="30" as="geometry" />
        </mxCell>
        <mxCell id="78Z0Ar44ANG4WeFFWspV-53" value="(0, n)" style="text;html=1;align=center;verticalAlign=middle;resizable=0;points=[];autosize=1;strokeColor=none;fillColor=none;fontSize=11;fontFamily=Helvetica;fontColor=default;" parent="1" vertex="1">
          <mxGeometry x="345" y="708" width="50" height="30" as="geometry" />
        </mxCell>
        <mxCell id="78Z0Ar44ANG4WeFFWspV-54" value="(1, n)" style="text;html=1;align=center;verticalAlign=middle;resizable=0;points=[];autosize=1;strokeColor=none;fillColor=none;fontSize=11;fontFamily=Helvetica;fontColor=default;" parent="1" vertex="1">
          <mxGeometry x="585" y="628" width="50" height="30" as="geometry" />
        </mxCell>
        <mxCell id="78Z0Ar44ANG4WeFFWspV-55" value="(1, m)" style="text;html=1;align=center;verticalAlign=middle;resizable=0;points=[];autosize=1;strokeColor=none;fillColor=none;fontSize=11;fontFamily=Helvetica;fontColor=default;" parent="1" vertex="1">
          <mxGeometry x="565" y="468" width="50" height="30" as="geometry" />
        </mxCell>
      </root>
    </mxGraphModel>
  </diagram>
</mxfile>
